<svg xmlns="http://www.w3.org/2000/svg" xmlns:xlink="http://www.w3.org/1999/xlink" id="Ebene_1" x="0" y="0" enable-background="new 0 0 28 28" version="1.1" viewBox="0 0 28 28" xml:space="preserve"><style type="text/css">.st0{fill:#0e8de6}.st1{fill:#fff}</style><g id="monogram"><circle cx="14" cy="14" r="14" class="st0"/><g><path d="M6.2,21.8C4.1,19.7,3,16.9,3,14.2L13.9,25C11.1,24.9,8.3,23.9,6.2,21.8z" class="st1"/><path d="M22.9,20.4c-0.7,1.1-3.2,3.6-6.5,4.2L3.3,11.6C4.4,6.7,8.8,3,14,3c3.7,0,6.9,1.8,8.9,4.5l-1.5,1.3 C19.7,6.5,17,5,14,5c-3.9,0-7.2,2.5-8.5,6l12.2,11.1c2-0.9,2.6-1.8,3.7-3L22.9,20.4z" class="st1"/></g></g></svg>